<svg width="1074" height="176" viewBox="0 0 1074 176" fill="none" xmlns="http://www.w3.org/2000/svg">
<path d="M90.5994 129.392C90.8674 129.392 91.0014 129.66 91.0014 130.196C91.0014 130.732 90.8674 131 90.5994 131C88.9914 131 86.4901 130.911 83.0954 130.732C79.3434 130.553 76.3508 130.464 74.1174 130.464C71.7948 130.464 68.9361 130.553 65.5414 130.732C62.3254 130.911 59.9581 131 58.4394 131C58.0821 131 57.9034 130.732 57.9034 130.196C57.9034 129.66 58.0821 129.392 58.4394 129.392C61.1194 129.392 63.0401 129.124 64.2014 128.588C65.3628 127.963 65.9434 126.891 65.9434 125.372C65.9434 124.032 65.4074 122.156 64.3354 119.744L52.5434 91.47H31.3714L22.2594 113.714C20.8301 117.109 20.1154 119.833 20.1154 121.888C20.1154 124.479 21.1428 126.399 23.1974 127.65C25.2521 128.811 28.4234 129.392 32.7114 129.392C33.0688 129.392 33.2474 129.66 33.2474 130.196C33.2474 130.732 33.0241 131 32.5774 131C31.4161 131 28.8701 130.911 24.9394 130.732C20.4728 130.553 17.0781 130.464 14.7554 130.464C12.6114 130.464 10.1101 130.553 7.25142 130.732C4.75009 130.911 2.69542 131 1.08742 131C0.73009 131 0.551424 130.732 0.551424 130.196C0.551424 129.66 0.73009 129.392 1.08742 129.392C3.76742 129.392 6.67076 127.963 9.79742 125.104C13.0134 122.156 15.7828 118.047 18.1054 112.776L46.3794 46.044C46.3794 45.776 46.6921 45.642 47.3174 45.642C48.1214 45.642 48.7021 45.8207 49.0594 46.178L79.0754 119.744C80.4154 122.871 81.3981 124.97 82.0234 126.042C82.7381 127.114 83.7208 127.963 84.9714 128.588C86.2221 129.124 88.0981 129.392 90.5994 129.392ZM32.9794 87.718H51.0694L41.9574 65.876L32.9794 87.718ZM124.139 36.53C121.37 36.53 119.405 38.7633 118.243 43.23C117.171 47.6967 116.635 54.6647 116.635 64.134L116.769 72.174L117.037 80.214C122.844 80.0353 129.723 79.7227 137.673 79.276C138.12 79.276 138.433 79.4547 138.611 79.812C138.879 80.1693 139.013 80.5267 139.013 80.884C139.013 82.0453 138.388 83.4747 137.137 85.172C135.976 86.78 134.815 87.45 133.653 87.182C126.149 85.6633 120.655 84.7253 117.171 84.368L118.645 133.814C118.735 135.243 118.779 137.209 118.779 139.71C118.779 146.767 118.199 152.306 117.037 156.326C115.876 160.435 114.045 163.383 111.543 165.17C109.042 166.957 105.692 167.85 101.493 167.85C97.2052 167.85 93.7212 167.091 91.0412 165.572C88.2719 164.143 86.8872 162.356 86.8872 160.212C86.8872 158.515 87.4232 157.175 88.4952 156.192C89.5672 155.299 90.9072 154.852 92.5152 154.852C94.9272 154.852 96.6245 155.388 97.6072 156.46C98.6792 157.532 99.6172 159.095 100.421 161.15C101.047 162.579 101.583 163.607 102.029 164.232C102.565 164.857 103.325 165.17 104.307 165.17C105.29 165.17 105.915 164.5 106.183 163.16C106.541 161.909 106.719 159.363 106.719 155.522C106.719 151.591 106.585 145.517 106.317 137.298L104.709 89.996C104.62 87.7627 104.307 86.1547 103.771 85.172C103.325 84.1893 102.521 83.564 101.359 83.296C100.287 83.028 98.4112 82.894 95.7312 82.894C95.6419 82.894 95.5079 82.8047 95.3292 82.626C95.2399 82.358 95.1952 82.09 95.1952 81.822C95.1952 81.554 95.2399 81.3307 95.3292 81.152C95.5079 80.884 95.6419 80.75 95.7312 80.75C98.8579 80.75 101.047 80.348 102.297 79.544C103.637 78.74 104.307 77.2213 104.307 74.988L104.173 69.762C104.173 60.2927 104.977 52.9673 106.585 47.786C108.193 42.6047 110.695 38.9867 114.089 36.932C117.573 34.788 122.353 33.716 128.427 33.716C132.715 33.716 136.199 34.4753 138.879 35.994C141.559 37.4233 142.899 39.21 142.899 41.354C142.899 43.1407 142.363 44.5253 141.291 45.508C140.219 46.4907 138.745 46.982 136.869 46.982C134.1 46.982 132.179 46.446 131.107 45.374C130.035 44.302 129.053 42.694 128.159 40.55C127.623 39.1207 127.087 38.0933 126.551 37.468C126.105 36.8427 125.301 36.53 124.139 36.53ZM187.228 76.462C187.407 76.2833 187.63 76.194 187.898 76.194C188.166 76.194 188.389 76.2833 188.568 76.462C188.836 76.5513 188.97 76.6853 188.97 76.864L188.836 135.422C188.747 145.963 186.156 154.137 181.064 159.944C176.061 165.751 169.093 168.654 160.16 168.654C154.353 168.654 149.619 167.537 145.956 165.304C142.383 163.16 140.596 160.346 140.596 156.862C140.596 155.165 141.177 153.869 142.338 152.976C143.589 152.083 145.063 151.636 146.76 151.636C148.815 151.636 150.333 152.172 151.316 153.244C152.388 154.316 153.46 156.013 154.532 158.336C155.693 160.837 156.899 162.713 158.15 163.964C159.401 165.304 161.366 165.974 164.046 165.974C167.709 165.974 170.567 164.009 172.622 160.078C174.766 156.237 175.883 149.045 175.972 138.504V109.962C173.56 117.109 170.165 122.692 165.788 126.712C161.411 130.732 156.765 132.742 151.852 132.742C148.189 132.742 145.197 131.536 142.874 129.124C140.641 126.623 139.524 122.826 139.524 117.734C139.524 111.838 141.132 105.763 144.348 99.51C147.564 93.1673 151.673 87.9413 156.676 83.832C161.768 79.6333 166.949 77.534 172.22 77.534C174.096 77.534 176.017 77.8467 177.982 78.472C180.037 79.008 181.868 79.8567 183.476 81.018C185.173 79.678 186.424 78.1593 187.228 76.462ZM159.49 122.96C162.438 122.96 165.163 121.531 167.664 118.672C170.255 115.813 172.265 112.329 173.694 108.22C175.213 104.021 175.972 100.18 175.972 96.696C175.972 92.7653 175.034 89.6833 173.158 87.45C171.371 85.2167 168.915 84.1 165.788 84.1C161.232 84.1 157.659 86.3333 155.068 90.8C152.477 95.1773 151.182 100.895 151.182 107.952C151.271 113.223 152.075 117.064 153.594 119.476C155.113 121.799 157.078 122.96 159.49 122.96ZM266.433 120.548C266.522 120.459 266.656 120.414 266.835 120.414C267.192 120.414 267.46 120.593 267.639 120.95C267.907 121.218 267.996 121.486 267.907 121.754C265.137 125.417 262.636 128.097 260.403 129.794C258.259 131.402 255.802 132.206 253.033 132.206C249.906 132.206 247.583 131.134 246.065 128.99C244.635 126.757 243.965 123.451 244.055 119.074L244.189 97.768C244.189 89.3707 242.134 85.172 238.025 85.172C235.166 85.172 232.575 86.8247 230.253 90.13C227.93 93.346 226.054 98.17 224.625 104.602C223.285 110.945 222.57 118.538 222.481 127.382V129.392C222.481 130.196 221.811 130.821 220.471 131.268C219.131 131.804 217.165 132.072 214.575 132.072C211.448 132.072 209.795 131.715 209.617 131V127.918C209.795 125.417 209.885 123.139 209.885 121.084L210.421 52.074C210.51 49.2153 210.197 47.116 209.483 45.776C208.857 44.436 207.785 43.766 206.267 43.766C204.837 43.766 202.872 44.3913 200.371 45.642H200.237C199.879 45.642 199.611 45.4187 199.433 44.972C199.165 44.5253 199.209 44.2127 199.567 44.034L220.739 33.85H221.007C221.364 33.85 221.721 33.984 222.079 34.252C222.436 34.52 222.615 34.7433 222.615 34.922L222.481 101.252C224.357 93.6587 227.126 87.8073 230.789 83.698C234.451 79.5887 238.784 77.534 243.787 77.534C252.452 77.534 256.785 83.43 256.785 95.222L256.517 119.074C256.338 123.273 257.365 125.372 259.599 125.372C261.296 125.372 263.574 123.764 266.433 120.548ZM335.745 120.682C335.834 120.593 335.968 120.548 336.147 120.548C336.415 120.548 336.683 120.727 336.951 121.084C337.219 121.352 337.308 121.575 337.219 121.754C334.718 125.238 332.306 127.873 329.983 129.66C327.66 131.357 325.293 132.206 322.881 132.206C319.665 132.206 317.253 131.134 315.645 128.99C314.037 126.846 313.233 123.541 313.233 119.074V109.962C310.821 117.109 307.426 122.692 303.049 126.712C298.672 130.732 294.026 132.742 289.113 132.742C285.45 132.742 282.458 131.536 280.135 129.124C277.902 126.623 276.785 122.826 276.785 117.734C276.785 111.838 278.393 105.763 281.609 99.51C284.825 93.1673 288.934 87.9413 293.937 83.832C299.029 79.6333 304.21 77.534 309.481 77.534C311.357 77.534 313.278 77.8467 315.243 78.472C317.298 79.008 319.129 79.8567 320.737 81.018C322.434 79.678 323.685 78.1593 324.489 76.462C324.668 76.2833 324.846 76.194 325.025 76.194C325.293 76.194 325.561 76.2833 325.829 76.462C326.186 76.6407 326.32 76.7747 326.231 76.864L325.963 119.074C325.874 121.129 326.052 122.692 326.499 123.764C327.035 124.836 327.794 125.372 328.777 125.372C329.67 125.372 330.742 124.97 331.993 124.166C333.244 123.273 334.494 122.111 335.745 120.682ZM296.751 122.96C299.699 122.96 302.424 121.531 304.925 118.672C307.516 115.813 309.526 112.329 310.955 108.22C312.474 104.021 313.233 100.18 313.233 96.696C313.233 92.7653 312.295 89.6833 310.419 87.45C308.632 85.2167 306.176 84.1 303.049 84.1C298.493 84.1 294.92 86.3333 292.329 90.8C289.738 95.1773 288.443 100.895 288.443 107.952C288.532 113.223 289.336 117.064 290.855 119.476C292.374 121.799 294.339 122.96 296.751 122.96ZM409.922 120.414C410.28 120.414 410.592 120.593 410.86 120.95C411.128 121.218 411.173 121.486 410.994 121.754C408.314 125.417 405.858 128.097 403.624 129.794C401.391 131.402 398.89 132.206 396.12 132.206C392.904 132.206 390.582 131.134 389.152 128.99C387.723 126.757 387.053 123.451 387.142 119.074L387.41 97.768C387.41 89.3707 385.266 85.172 380.978 85.172C378.12 85.172 375.529 86.78 373.206 89.996C370.884 93.212 369.008 97.9913 367.578 104.334C366.238 110.587 365.524 118.047 365.434 126.712V129.392C365.434 130.196 364.764 130.821 363.424 131.268C362.174 131.804 360.253 132.072 357.662 132.072C354.536 132.072 352.883 131.715 352.704 131V127.918C352.883 125.417 352.972 123.139 352.972 121.084L353.24 91.202C353.24 86.8247 352.079 84.636 349.756 84.636C347.791 84.636 345.334 86.4227 342.386 89.996C342.297 90.0853 342.163 90.13 341.984 90.13C341.627 90.13 341.314 89.996 341.046 89.728C340.778 89.3707 340.734 89.058 340.912 88.79C343.592 85.038 346.183 82.3133 348.684 80.616C351.186 78.9187 353.821 78.07 356.59 78.07C359.717 78.07 361.95 79.0527 363.29 81.018C364.72 82.894 365.479 85.7527 365.568 89.594V101.922C367.444 94.15 370.214 88.1647 373.876 83.966C377.539 79.678 381.872 77.534 386.874 77.534C395.45 77.534 399.738 83.43 399.738 95.222L399.604 119.074C399.515 123.273 400.542 125.372 402.686 125.372C403.669 125.372 404.652 124.97 405.634 124.166C406.706 123.362 407.957 122.201 409.386 120.682L409.922 120.414ZM726.697 129.392C726.965 129.392 727.099 129.66 727.099 130.196C727.189 130.732 727.055 131 726.697 131H713.029C707.759 131 704.453 130.732 703.113 130.196C701.863 129.66 699.763 127.069 696.815 122.424C693.957 117.779 691.053 113.491 688.105 109.56L670.819 86.11L665.593 91.336V120.146C665.593 123.183 665.727 125.283 665.995 126.444C666.263 127.516 666.978 128.275 668.139 128.722C669.39 129.169 671.534 129.392 674.571 129.392C674.75 129.392 674.839 129.66 674.839 130.196C674.839 130.732 674.75 131 674.571 131C671.623 131 669.39 130.955 667.871 130.866L657.821 130.732L648.575 130.866C646.878 130.955 644.6 131 641.741 131C641.563 131 641.473 130.732 641.473 130.196C641.473 129.66 641.563 129.392 641.741 129.392C644.511 129.392 646.521 129.169 647.771 128.722C649.022 128.275 649.871 127.427 650.317 126.176C650.764 124.836 650.987 122.826 650.987 120.146V58.104C650.987 55.424 650.764 53.4587 650.317 52.208C649.871 50.9573 649.022 50.1087 647.771 49.662C646.521 49.126 644.645 48.858 642.143 48.858C641.875 48.858 641.741 48.59 641.741 48.054C641.741 47.518 641.875 47.25 642.143 47.25L648.575 47.384C652.506 47.5627 655.677 47.652 658.089 47.652C660.501 47.652 663.762 47.5627 667.871 47.384L674.705 47.25C674.884 47.25 674.973 47.518 674.973 48.054C674.973 48.59 674.884 48.858 674.705 48.858C672.025 48.858 670.06 49.126 668.809 49.662C667.559 50.198 666.71 51.0913 666.263 52.342C665.906 53.5927 665.683 55.6027 665.593 58.372V87.182L691.321 60.784C693.644 58.4613 694.805 56.228 694.805 54.084C694.805 52.476 694.18 51.2253 692.929 50.332C691.679 49.3493 689.981 48.858 687.837 48.858C687.48 48.858 687.301 48.59 687.301 48.054C687.301 47.518 687.435 47.25 687.703 47.25L695.073 47.384C700.076 47.5627 704.007 47.652 706.865 47.652C709.903 47.652 713.029 47.5627 716.245 47.384L721.337 47.25C721.605 47.25 721.739 47.518 721.739 48.054C721.739 48.59 721.605 48.858 721.337 48.858C717.407 48.858 713.074 50.0193 708.339 52.342C703.605 54.5753 699.227 57.6573 695.207 61.588L680.199 76.596L698.959 102.056C705.749 111.079 710.528 117.332 713.297 120.816C716.156 124.211 718.479 126.489 720.265 127.65C722.141 128.811 724.285 129.392 726.697 129.392ZM751.997 132.206C748.781 132.206 746.414 131.134 744.895 128.99C743.466 126.757 742.841 123.451 743.019 119.074L743.555 91.202C743.645 86.8247 742.483 84.636 740.071 84.636C738.106 84.636 735.649 86.4227 732.701 89.996C732.612 90.0853 732.478 90.13 732.299 90.13C732.031 90.13 731.763 89.996 731.495 89.728C731.138 89.3707 731.049 89.058 731.227 88.79C733.907 85.038 736.498 82.3133 738.999 80.616C741.59 78.9187 744.225 78.07 746.905 78.07C752.98 78.07 756.017 81.9113 756.017 89.594L755.481 119.074C755.303 123.273 756.33 125.372 758.563 125.372C759.457 125.372 760.35 125.015 761.243 124.3C762.226 123.585 763.566 122.379 765.263 120.682C765.442 120.503 765.621 120.414 765.799 120.414C766.157 120.414 766.425 120.593 766.603 120.95C766.871 121.218 766.961 121.486 766.871 121.754C764.191 125.417 761.735 128.097 759.501 129.794C757.268 131.402 754.767 132.206 751.997 132.206ZM748.379 64.67C745.789 64.67 743.779 63.9553 742.349 62.526C740.92 61.0967 740.205 59.0867 740.205 56.496C740.205 54.1733 740.92 52.342 742.349 51.002C743.868 49.5727 745.878 48.858 748.379 48.858C750.881 48.858 752.801 49.528 754.141 50.868C755.481 52.208 756.151 54.084 756.151 56.496C756.151 59.0867 755.481 61.0967 754.141 62.526C752.801 63.9553 750.881 64.67 748.379 64.67ZM814.41 120.146C814.678 120.146 814.946 120.325 815.214 120.682C815.482 120.95 815.526 121.218 815.348 121.486C811.506 125.417 808.022 128.275 804.896 130.062C801.769 131.759 798.508 132.608 795.114 132.608C785.466 132.608 780.731 127.873 780.91 118.404L781.044 89.996C781.133 87.1373 780.731 85.2613 779.838 84.368C778.944 83.3853 777.113 82.894 774.344 82.894C773.986 82.894 773.763 82.5367 773.674 81.822C773.674 81.1073 773.808 80.75 774.076 80.75C782.116 80.75 787.61 76.8193 790.558 68.958C790.736 68.69 791.094 68.556 791.63 68.556C792.076 68.556 792.478 68.6453 792.836 68.824C793.282 69.0027 793.506 69.1813 793.506 69.36V80.348C797.168 80.1693 802.975 79.812 810.926 79.276C811.372 79.276 811.73 79.4547 811.998 79.812C812.266 80.1693 812.4 80.5267 812.4 80.884C812.31 81.8667 811.819 82.9833 810.926 84.234C810.122 85.3953 809.228 85.9313 808.246 85.842C802.618 84.9487 797.704 84.4127 793.506 84.234L793.372 116.126C793.372 119.253 794.086 121.575 795.516 123.094C797.034 124.523 799.357 125.238 802.484 125.238C806.414 125.238 810.345 123.541 814.276 120.146H814.41ZM848.491 132.742C842.863 132.742 838.128 131.357 834.287 128.588C830.535 125.819 827.766 122.245 825.979 117.868C824.192 113.401 823.433 108.756 823.701 103.932C823.79 99.1973 825.175 94.82 827.855 90.8C830.535 86.6907 834.019 83.4747 838.307 81.152C842.595 78.74 846.972 77.534 851.439 77.534C855.28 77.534 858.764 78.2933 861.891 79.812C865.018 81.3307 866.76 83.564 867.117 86.512C867.296 88.388 866.804 89.862 865.643 90.934C864.571 92.006 862.874 92.542 860.551 92.542C858.139 92.542 856.352 92.006 855.191 90.934C854.03 89.862 853.002 88.388 852.109 86.512C851.216 84.8147 850.322 83.5193 849.429 82.626C848.536 81.7327 847.285 81.286 845.677 81.286C842.818 81.286 840.54 82.8047 838.843 85.842C837.235 88.8793 836.431 92.944 836.431 98.036C836.431 106.255 838.084 112.999 841.389 118.27C844.784 123.541 849.697 126.176 856.129 126.176C860.774 126.176 864.437 125.104 867.117 122.96H867.251C867.519 122.96 867.787 123.139 868.055 123.496C868.412 123.764 868.502 124.032 868.323 124.3C865.554 127.427 862.516 129.615 859.211 130.866C855.906 132.117 852.332 132.742 848.491 132.742ZM940.29 120.548C940.38 120.459 940.514 120.414 940.692 120.414C941.05 120.414 941.318 120.593 941.496 120.95C941.764 121.218 941.854 121.486 941.764 121.754C938.995 125.417 936.494 128.097 934.26 129.794C932.116 131.402 929.66 132.206 926.89 132.206C923.764 132.206 921.441 131.134 919.922 128.99C918.493 126.757 917.823 123.451 917.912 119.074L918.046 97.768C918.046 89.3707 915.992 85.172 911.882 85.172C909.024 85.172 906.433 86.8247 904.11 90.13C901.788 93.346 899.912 98.17 898.482 104.602C897.142 110.945 896.428 118.538 896.338 127.382V129.392C896.338 130.196 895.668 130.821 894.328 131.268C892.988 131.804 891.023 132.072 888.432 132.072C885.306 132.072 883.653 131.715 883.474 131V127.918C883.653 125.417 883.742 123.139 883.742 121.084L884.278 52.074C884.368 49.2153 884.055 47.116 883.34 45.776C882.715 44.436 881.643 43.766 880.124 43.766C878.695 43.766 876.73 44.3913 874.228 45.642H874.094C873.737 45.642 873.469 45.4187 873.29 44.972C873.022 44.5253 873.067 44.2127 873.424 44.034L894.596 33.85H894.864C895.222 33.85 895.579 33.984 895.936 34.252C896.294 34.52 896.472 34.7433 896.472 34.922L896.338 101.252C898.214 93.6587 900.984 87.8073 904.646 83.698C908.309 79.5887 912.642 77.534 917.644 77.534C926.31 77.534 930.642 83.43 930.642 95.222L930.374 119.074C930.196 123.273 931.223 125.372 933.456 125.372C935.154 125.372 937.432 123.764 940.29 120.548ZM995.38 122.558C995.648 122.558 995.916 122.692 996.184 122.96C996.452 123.228 996.497 123.451 996.318 123.63C993.459 126.757 990.199 129.035 986.536 130.464C982.873 131.893 979.121 132.608 975.28 132.608C969.92 132.608 965.364 131.402 961.612 128.99C957.86 126.578 955.046 123.407 953.17 119.476C951.294 115.545 950.356 111.347 950.356 106.88C950.356 102.056 951.607 97.4107 954.108 92.944C956.609 88.388 960.138 84.6807 964.694 81.822C969.339 78.9633 974.655 77.534 980.64 77.534C984.66 77.534 987.787 78.1593 990.02 79.41C992.343 80.6607 993.638 82.4473 993.906 84.77C994.263 88.7007 991.494 92.3633 985.598 95.758C979.702 99.1527 972.421 101.609 963.756 103.128C964.113 110.007 965.9 115.679 969.116 120.146C972.421 124.523 976.888 126.712 982.516 126.712C984.66 126.712 986.849 126.399 989.082 125.774C991.315 125.059 993.325 123.987 995.112 122.558H995.38ZM973.672 81.152C970.545 81.152 968.089 83.028 966.302 86.78C964.605 90.4427 963.756 95.1773 963.756 100.984C974.565 98.4827 979.791 94.016 979.434 87.584C979.434 85.6187 978.898 84.0553 977.826 82.894C976.843 81.7327 975.459 81.152 973.672 81.152ZM1071.74 120.414C1072.1 120.414 1072.41 120.593 1072.68 120.95C1072.95 121.218 1072.99 121.486 1072.81 121.754C1070.13 125.417 1067.68 128.097 1065.44 129.794C1063.21 131.402 1060.71 132.206 1057.94 132.206C1054.72 132.206 1052.4 131.134 1050.97 128.99C1049.54 126.757 1048.87 123.451 1048.96 119.074L1049.23 97.768C1049.23 89.3707 1047.09 85.172 1042.8 85.172C1039.94 85.172 1037.35 86.78 1035.03 89.996C1032.7 93.212 1030.83 97.9913 1029.4 104.334C1028.06 110.587 1027.34 118.047 1027.25 126.712V129.392C1027.25 130.196 1026.58 130.821 1025.24 131.268C1023.99 131.804 1022.07 132.072 1019.48 132.072C1016.35 132.072 1014.7 131.715 1014.52 131V127.918C1014.7 125.417 1014.79 123.139 1014.79 121.084L1015.06 91.202C1015.06 86.8247 1013.9 84.636 1011.58 84.636C1009.61 84.636 1007.15 86.4227 1004.21 89.996C1004.12 90.0853 1003.98 90.13 1003.8 90.13C1003.45 90.13 1003.13 89.996 1002.87 89.728C1002.6 89.3707 1002.55 89.058 1002.73 88.79C1005.41 85.038 1008 82.3133 1010.5 80.616C1013 78.9187 1015.64 78.07 1018.41 78.07C1021.54 78.07 1023.77 79.0527 1025.11 81.018C1026.54 82.894 1027.3 85.7527 1027.39 89.594V101.922C1029.26 94.15 1032.03 88.1647 1035.7 83.966C1039.36 79.678 1043.69 77.534 1048.69 77.534C1057.27 77.534 1061.56 83.43 1061.56 95.222L1061.42 119.074C1061.33 123.273 1062.36 125.372 1064.51 125.372C1065.49 125.372 1066.47 124.97 1067.45 124.166C1068.53 123.362 1069.78 122.201 1071.21 120.682L1071.74 120.414Z" fill="white"/>
<circle cx="526" cy="88" r="88" fill="#F8F5ED"/>
<path d="M442.642 107.598C456.683 105.101 470.473 102.351 484.347 100.273C505.232 97.1666 524.689 89.5056 544.46 82.6631C555.648 78.801 567.339 75.7996 579.051 74.3093C587.363 73.2389 596.136 74.981 604.595 76.1564C609.947 76.912 610.031 77.7726 608.919 83.7755C590.868 78.6961 572.901 79.5986 555.039 84.9299C573.09 81.9494 591.078 80.1443 608.73 87.5535C606.316 99.0347 600.565 108.018 591.875 115.071C579.597 125.019 565.534 131.064 549.771 131.925C529.474 133.037 514.488 123.382 503.615 106.822C502.02 104.387 500.404 103.484 497.592 103.61C486.467 104.072 475.868 106.507 465.625 110.873C461.028 112.846 456.264 114.63 451.394 115.7C445.349 117.106 442.684 114.42 442.642 107.598Z" fill="#F54748"/>
<path d="M442.642 107.598C456.683 105.101 470.473 102.351 484.347 100.273C505.232 97.1666 524.689 89.5056 544.46 82.6631C555.648 78.801 567.339 75.7996 579.051 74.3093C587.363 73.2389 596.136 74.981 604.595 76.1564C609.947 76.912 610.031 77.7726 608.919 83.7755C590.868 78.6961 572.901 79.5986 555.039 84.9299C573.09 81.9494 591.078 80.1443 608.73 87.5535C606.316 99.0347 600.565 108.018 591.875 115.071C579.597 125.019 565.534 131.064 549.771 131.925C529.474 133.037 514.488 123.382 503.615 106.822C502.02 104.387 500.404 103.484 497.592 103.61C486.467 104.072 475.868 106.507 465.625 110.873C461.028 112.846 456.264 114.63 451.394 115.7C445.349 117.106 442.684 114.42 442.642 107.598Z" fill="#CD6346"/>
<path d="M442.642 107.598C456.683 105.101 470.473 102.351 484.347 100.273C505.232 97.1666 524.689 89.5056 544.46 82.6631C555.648 78.801 567.339 75.7996 579.051 74.3093C587.363 73.2389 596.136 74.981 604.595 76.1564C609.947 76.912 610.031 77.7726 608.919 83.7755C590.868 78.6961 572.901 79.5986 555.039 84.9299C573.09 81.9494 591.078 80.1443 608.73 87.5535C606.316 99.0347 600.565 108.018 591.875 115.071C579.597 125.019 565.534 131.064 549.771 131.925C529.474 133.037 514.488 123.382 503.615 106.822C502.02 104.387 500.404 103.484 497.592 103.61C486.467 104.072 475.868 106.507 465.625 110.873C461.028 112.846 456.264 114.63 451.394 115.7C445.349 117.106 442.684 114.42 442.642 107.598Z" fill="#89BEB2"/>
<path d="M517.238 87.7625C515.432 82.0534 514.026 74.1195 518.035 67.8647C519.483 65.5978 520.701 65.0101 522.023 63.1001C524.605 59.322 526.158 52.3745 520.428 38.4377C522.401 39.8439 525.004 42.1108 526.788 45.595C528.824 49.562 528.551 52.6264 529.18 55.9427C529.915 59.8677 532.119 65.199 538.731 71.055C538.038 68.9141 537.303 65.9336 537.135 62.3025C536.988 58.7343 537.429 55.7119 537.933 53.55C538.689 55.7538 539.906 58.5664 541.921 61.5049C543.264 63.4569 544.649 65.0311 545.909 66.2695C544.167 63.7088 541.858 59.6788 540.347 54.3266C539.192 50.2337 537.933 43.3911 539.549 35.2263C540.934 28.2369 543.873 23.0946 545.909 20.1141C545.762 22.6748 545.825 27.5653 548.302 32.8336C552.101 40.9564 559.027 44.5456 561.021 45.5531C566.017 48.0718 567.045 46.7075 576.931 49.541C584.655 51.7449 588.517 52.8573 592.043 55.9008C594.058 57.6219 598.739 62.3654 599.998 72.6082C595.465 71.8526 589.336 71.1809 582.094 71.4118C573.993 71.6637 567.906 72.9231 563.792 73.8046C557.495 75.1479 552.437 76.8271 542.32 80.1644C536.443 82.1164 532.245 83.6486 524.815 85.7265C521.645 86.65 519.022 87.3217 517.238 87.7625Z" fill="#FDC55E"/>
<path d="M517.238 87.7625C515.432 82.0534 514.026 74.1195 518.035 67.8647C519.483 65.5978 520.701 65.0101 522.023 63.1001C524.605 59.322 526.158 52.3745 520.428 38.4377C522.401 39.8439 525.004 42.1108 526.788 45.595C528.824 49.562 528.551 52.6264 529.18 55.9427C529.915 59.8677 532.119 65.199 538.731 71.055C538.038 68.9141 537.303 65.9336 537.135 62.3025C536.988 58.7343 537.429 55.7119 537.933 53.55C538.689 55.7538 539.906 58.5664 541.921 61.5049C543.264 63.4569 544.649 65.0311 545.909 66.2695C544.167 63.7088 541.858 59.6788 540.347 54.3266C539.192 50.2337 537.933 43.3911 539.549 35.2263C540.934 28.2369 543.873 23.0946 545.909 20.1141C545.762 22.6748 545.825 27.5653 548.302 32.8336C552.101 40.9564 559.027 44.5456 561.021 45.5531C566.017 48.0718 567.045 46.7075 576.931 49.541C584.655 51.7449 588.517 52.8573 592.043 55.9008C594.058 57.6219 598.739 62.3654 599.998 72.6082C595.465 71.8526 589.336 71.1809 582.094 71.4118C573.993 71.6637 567.906 72.9231 563.792 73.8046C557.495 75.1479 552.437 76.8271 542.32 80.1644C536.443 82.1164 532.245 83.6486 524.815 85.7265C521.645 86.65 519.022 87.3217 517.238 87.7625Z" fill="#F54748"/>
<path d="M566.919 72.3565C567.024 72.6923 571.642 70.8453 578.064 69.9637C585.705 68.9143 592.316 69.7118 597.165 70.7613C597.207 67.2771 596.22 64.8633 595.57 63.604C593.869 60.2667 591.246 58.4196 588.412 56.4466C586.208 54.8934 584.214 53.8859 582.85 53.2562C584.697 54.7045 586.985 56.7824 589.21 59.616C591.519 62.5545 593.009 65.3671 593.974 67.5709C590.763 67.0672 586.019 66.6684 580.457 67.5709C572.922 68.8303 566.793 71.9787 566.919 72.3565Z" fill="white"/>
<path d="M566.919 72.3565C567.024 72.6923 571.642 70.8453 578.064 69.9637C585.705 68.9143 592.316 69.7118 597.165 70.7613C597.207 67.2771 596.22 64.8633 595.57 63.604C593.869 60.2667 591.246 58.4196 588.412 56.4466C586.208 54.8934 584.214 53.8859 582.85 53.2562C584.697 54.7045 586.985 56.7824 589.21 59.616C591.519 62.5545 593.009 65.3671 593.974 67.5709C590.763 67.0672 586.019 66.6684 580.457 67.5709C572.922 68.8303 566.793 71.9787 566.919 72.3565Z" fill="#CD6346" fill-opacity="0.2"/>
</svg>
