<svg width="1365" height="1365" viewBox="0 0 1365 1365" fill="none" xmlns="http://www.w3.org/2000/svg">
<circle cx="682.5" cy="682.5" r="682.5" fill="#F8F5ED"/>
<path d="M36 834.498C144.904 815.127 251.854 793.802 359.456 777.686C521.428 753.593 672.33 694.177 825.675 641.108C912.44 611.156 1003.11 587.877 1093.95 576.319C1158.41 568.017 1226.45 581.529 1292.06 590.645C1333.57 596.505 1334.22 603.179 1325.59 649.736C1185.6 610.342 1046.25 617.342 907.719 658.689C1047.72 635.574 1187.22 621.574 1324.13 679.037C1305.41 768.081 1260.8 837.754 1193.41 892.45C1098.18 969.611 989.112 1016.49 866.86 1023.17C709.446 1031.8 593.217 956.914 508.893 828.475C496.522 809.592 483.987 802.592 462.174 803.569C375.897 807.15 293.69 826.034 214.25 859.893C178.6 875.195 141.648 889.032 103.882 897.334C56.9991 908.24 36.3256 887.404 36 834.498Z" fill="#F54748"/>
<path d="M36 834.498C144.904 815.127 251.854 793.802 359.456 777.686C521.428 753.593 672.33 694.177 825.675 641.108C912.44 611.156 1003.11 587.877 1093.95 576.319C1158.41 568.017 1226.45 581.529 1292.06 590.645C1333.57 596.505 1334.22 603.179 1325.59 649.736C1185.6 610.342 1046.25 617.342 907.719 658.689C1047.72 635.574 1187.22 621.574 1324.13 679.037C1305.41 768.081 1260.8 837.754 1193.41 892.45C1098.18 969.611 989.112 1016.49 866.86 1023.17C709.446 1031.8 593.217 956.914 508.893 828.475C496.522 809.592 483.987 802.592 462.174 803.569C375.897 807.15 293.69 826.034 214.25 859.893C178.6 875.195 141.648 889.032 103.882 897.334C56.9991 908.24 36.3256 887.404 36 834.498Z" fill="#CD6346"/>
<path d="M36 834.498C144.904 815.127 251.854 793.802 359.456 777.686C521.428 753.593 672.33 694.177 825.675 641.108C912.44 611.156 1003.11 587.877 1093.95 576.319C1158.41 568.017 1226.45 581.529 1292.06 590.645C1333.57 596.505 1334.22 603.179 1325.59 649.736C1185.6 610.342 1046.25 617.342 907.719 658.689C1047.72 635.574 1187.22 621.574 1324.13 679.037C1305.41 768.081 1260.8 837.754 1193.41 892.45C1098.18 969.611 989.112 1016.49 866.86 1023.17C709.446 1031.8 593.217 956.914 508.893 828.475C496.522 809.592 483.987 802.592 462.174 803.569C375.897 807.15 293.69 826.034 214.25 859.893C178.6 875.195 141.648 889.032 103.882 897.334C56.9991 908.24 36.3256 887.404 36 834.498Z" fill="#89BEB2"/>
<path d="M614.541 680.659C600.541 636.381 589.635 574.849 620.727 526.338C631.959 508.757 641.4 504.199 651.656 489.386C671.678 460.084 683.725 406.202 639.285 298.112C654.587 309.019 674.771 326.6 688.608 353.622C704.399 384.389 702.283 408.155 707.166 433.875C712.864 464.317 729.956 505.664 781.234 551.082C775.862 534.478 770.164 511.362 768.862 483.2C767.722 455.526 771.141 432.085 775.048 415.318C780.908 432.411 790.35 454.224 805.977 477.014C816.396 492.153 827.139 504.362 836.906 513.966C823.395 494.107 805.489 462.852 793.768 421.341C784.815 389.598 775.048 336.529 787.583 273.206C798.326 218.998 821.116 179.116 836.906 156C835.767 175.86 836.255 213.789 855.464 254.648C884.928 317.647 938.648 345.483 954.112 353.297C992.856 372.831 1000.83 362.25 1077.5 384.226C1137.41 401.318 1167.36 409.946 1194.71 433.55C1210.34 446.899 1246.64 483.688 1256.41 563.128C1221.24 557.267 1173.71 552.058 1117.55 553.849C1054.71 555.802 1007.51 565.57 975.6 572.407C926.765 582.825 887.533 595.848 809.07 621.731C763.49 636.87 730.933 648.753 673.306 664.869C648.726 672.032 628.378 677.241 614.541 680.659Z" fill="#FDC55E"/>
<path d="M614.541 680.659C600.541 636.381 589.635 574.849 620.727 526.338C631.959 508.757 641.4 504.199 651.656 489.386C671.678 460.084 683.725 406.202 639.285 298.112C654.587 309.019 674.771 326.6 688.608 353.622C704.399 384.389 702.283 408.155 707.166 433.875C712.864 464.317 729.956 505.664 781.234 551.082C775.862 534.478 770.164 511.362 768.862 483.2C767.722 455.526 771.141 432.085 775.048 415.318C780.908 432.411 790.35 454.224 805.977 477.014C816.396 492.153 827.139 504.362 836.906 513.966C823.395 494.107 805.489 462.852 793.768 421.341C784.815 389.598 775.048 336.529 787.583 273.206C798.326 218.998 821.116 179.116 836.906 156C835.767 175.86 836.255 213.789 855.464 254.648C884.928 317.647 938.648 345.483 954.112 353.297C992.856 372.831 1000.83 362.25 1077.5 384.226C1137.41 401.318 1167.36 409.946 1194.71 433.55C1210.34 446.899 1246.64 483.688 1256.41 563.128C1221.24 557.267 1173.71 552.058 1117.55 553.849C1054.71 555.802 1007.51 565.57 975.6 572.407C926.765 582.825 887.533 595.848 809.07 621.731C763.49 636.87 730.933 648.753 673.306 664.869C648.726 672.032 628.378 677.241 614.541 680.659Z" fill="#F54748"/>
<path d="M999.856 561.174C1000.67 563.778 1036.48 549.453 1086.3 542.616C1145.55 534.477 1196.83 540.663 1234.43 548.802C1234.76 521.779 1227.11 503.059 1222.06 493.292C1208.87 467.409 1188.53 453.084 1166.55 437.782C1149.46 425.736 1133.99 417.922 1123.41 413.038C1137.74 424.271 1155.48 440.386 1172.73 462.363C1190.64 485.153 1202.2 506.966 1209.69 524.059C1184.78 520.152 1147.99 517.059 1104.85 524.059C1046.41 533.826 998.879 558.244 999.856 561.174Z" fill="white"/>
<path d="M999.856 561.174C1000.67 563.778 1036.48 549.453 1086.3 542.616C1145.55 534.477 1196.83 540.663 1234.43 548.802C1234.76 521.779 1227.11 503.059 1222.06 493.292C1208.87 467.409 1188.53 453.084 1166.55 437.782C1149.46 425.736 1133.99 417.922 1123.41 413.038C1137.74 424.271 1155.48 440.386 1172.73 462.363C1190.64 485.153 1202.2 506.966 1209.69 524.059C1184.78 520.152 1147.99 517.059 1104.85 524.059C1046.41 533.826 998.879 558.244 999.856 561.174Z" fill="#CD6346" fill-opacity="0.2"/>
</svg>
